<?xml version="1.0" encoding="utf-8" ?>
<svg height="64" viewBox="0 0 64 64" width="64" xmlns="http://www.w3.org/2000/svg">
    <path d="M208.226 72.6275L343.954 72.6192C349.875 72.6187 356.325 72.1157 362.141 73.2026C385.054 77.4843 390.769 95.563 390.762 115.396L391.061 403.379C391.188 419.189 379.906 433.557 364.74 437.665C357.041 439.751 345.961 438.912 337.848 438.913L304.125 438.904L168.902 438.913C162.24 438.914 154.971 439.447 148.436 438.119C135.339 435.458 123.726 423.369 121.604 410.211C120.361 402.505 121.008 392.426 121.013 384.535L121.01 129.684C121.007 108.721 118.226 83.2753 144.024 74.7499C153.676 71.5604 167.091 72.6177 177.337 72.6182L208.226 72.6275ZM203.629 415.281C238.435 413.697 265.408 384.265 263.956 349.453C262.503 314.64 233.174 287.557 198.356 288.878C163.352 290.205 136.092 319.727 137.551 354.725C139.011 389.724 168.636 416.873 203.629 415.281Z" fill="#1E1D1D"
        transform="scale(0.125 0.125)" />
    <path d="M154.003 86.7542C157.628 86.4415 161.549 86.7318 165.204 86.7365L346.779 86.7371C360.101 86.7268 375.303 88.2831 376.649 105.959C377.074 111.542 376.757 117.371 376.75 122.979L376.757 386.264C376.758 402.254 379.241 423.096 356.772 424.914C352.096 425.076 347.356 424.922 342.673 424.919L164.437 424.935C136.59 425.199 134.873 414.888 134.875 391.847L134.883 127.434C134.879 110.94 131.587 90.5614 154.003 86.7542ZM203.629 415.281C238.435 413.697 265.408 384.265 263.956 349.453C262.503 314.64 233.174 287.557 198.356 288.878C163.352 290.205 136.092 319.727 137.551 354.725C139.011 389.724 168.636 416.873 203.629 415.281Z" fill="#FB7058"
        transform="scale(0.125 0.125)" />
    <path d="M173.813 105.037L332.515 105.033C339.715 105.026 347.129 104.643 354.298 105.284C361.395 105.918 358.986 121.339 358.979 126.011L358.993 254.3C359.008 277.024 363.473 279.135 338.875 278.993L179.219 279.002C170.971 279.003 153.25 282.732 153.17 271.698L153.205 129.965C153.198 104.898 148.789 104.94 173.813 105.037Z" fill="#1E1D1D"
        transform="scale(0.125 0.125)" />
    <path d="M230.523 119.416L345.002 119.416L345.002 192.92L310.91 192.92C308.438 173.071 295.124 156.084 276.812 148.139C243.121 135.004 204.876 156.742 200.672 192.92L167.076 192.92L167.076 119.416L230.523 119.416Z" fill="#FEDE5D"
        transform="scale(0.125 0.125)" />
    <path d="M167.076 206.963L200.672 206.963C210.388 270.943 301.23 271.098 310.91 206.963L345.002 206.963L345.002 216.625L345.002 264.773L167.076 264.773L167.076 206.963Z" fill="#FEDE5D"
        transform="scale(0.125 0.125)" />
    <path d="M253.605 158.351C274.136 156.082 293.037 173.087 296.597 192.92L278.618 192.92C273.529 183.878 269.066 177.931 257.559 177.171C246.128 176.203 238.636 183.024 233.829 192.92C227.541 192.758 221.207 192.888 214.914 192.92C218.823 173.52 233.742 160.069 253.605 158.351Z" fill="#EE2725"
        transform="scale(0.125 0.125)" />
    <path d="M230.523 206.963L233.829 206.963C238.567 219.115 250.932 226.078 263.753 221.829C271.34 219.315 275.16 213.77 278.618 206.963C284.611 206.974 290.605 206.873 296.597 206.963C294.674 215.651 291.203 222.421 285.137 228.944C259.561 253.103 224.043 239.798 214.914 206.963L230.523 206.963Z" fill="#EE2725"
        transform="scale(0.125 0.125)" />
    <path d="M253.471 191.424C258.154 189.977 263.128 192.577 264.613 197.248C266.097 201.92 263.536 206.914 258.876 208.435C254.164 209.973 249.102 207.377 247.601 202.653C246.1 197.93 248.736 192.888 253.471 191.424Z" fill="#F1EFEF"
        transform="scale(0.125 0.125)" />
    <path d="M198.356 288.878C233.174 287.557 262.503 314.64 263.956 349.453C265.408 384.265 238.435 413.697 203.629 415.281C168.636 416.873 139.011 389.724 137.551 354.725C136.092 319.727 163.352 290.205 198.356 288.878ZM191.182 400.651L192.119 400.571C193.041 398.797 192.481 389.143 192.465 386.593C178.374 381.315 167.883 373.885 165.553 358.344L154.003 358.344L152.734 358.496C151.806 359.685 153.169 362.818 153.513 364.151C159.579 387.699 172.333 391.862 191.182 400.651Z" fill="#1E1D1D"
        transform="scale(0.125 0.125)" />
    <path d="M197.382 331.2C208.958 329.717 219.529 337.939 220.94 349.524C222.351 361.109 214.063 371.628 202.469 372.967C190.978 374.293 180.572 366.094 179.173 354.611C177.774 343.129 185.908 332.671 197.382 331.2Z" fill="#BCC4AA"
        transform="scale(0.125 0.125)" />
    <path d="M234.875 359.033L249.456 359.033C247.307 376.208 234.979 390.465 219.465 397.502C215.538 399.129 211.561 400.01 207.377 400.651L207.377 386.593C222.307 382.563 230.618 374.31 234.875 359.033Z" fill="#F1EFEF"
        transform="scale(0.125 0.125)" />
    <path d="M207.377 303.913C228.275 303.878 245.062 325.853 249.456 344.747L234.875 344.747C231.293 332.194 221.56 318.859 207.377 317.999C207.093 313.433 207.188 308.489 207.377 303.913Z" fill="#F1EFEF"
        transform="scale(0.125 0.125)" />
    <path d="M192.465 303.913L192.999 303.898C193.569 305.252 193.092 315.65 193.083 317.999C179.077 318.673 169.447 332.659 165.553 344.747C161.847 345.205 157.757 344.76 154.003 344.747L152.934 344.786L152.562 344.334C151.829 339.194 157.9 327.135 161.087 322.821C168.54 312.735 180.073 305.72 192.465 303.913Z" fill="#F1EFEF"
        transform="scale(0.125 0.125)" />
    <path d="M349.191 351.95C354.61 351.74 358.679 352.513 359.553 358.454C360.494 364.846 360.041 382.01 359.74 388.846C356.286 394.363 349.792 392.733 344.189 392.728L323.367 392.706C308.722 392.84 312.717 379.286 312.73 367.656C312.75 350.301 313.464 351.942 329.346 351.94L349.191 351.95Z" fill="#1E1D1D"
        transform="scale(0.125 0.125)" />
    <path d="M327.482 366.051L345.002 366.051L345.002 376.789L327.482 376.789L327.482 366.051Z" fill="#25D99E"
        transform="scale(0.125 0.125)" />
    <path d="M343.612 303.913C353.061 303.654 359.33 302.339 359.676 313.711C359.839 319.096 360.408 333.271 359.451 338.229C358.147 344.984 350.408 343.571 345.371 343.551L328.764 343.526C321.516 343.591 312.849 345.497 312.743 335.802L312.72 318.557C312.727 304.746 312.111 303.89 327.511 303.894L343.612 303.913Z" fill="#1E1D1D"
        transform="scale(0.125 0.125)" />
    <path d="M326.653 317.999L345.002 317.999L345.002 329.213L326.653 329.213L326.653 317.999Z" fill="#FEDE5D"
        transform="scale(0.125 0.125)" />
</svg>